<mxfile host="app.diagrams.net" agent="Mozilla/5.0 (Windows NT 10.0; Win64; x64) AppleWebKit/537.36 (KHTML, like Gecko) Chrome/132.0.0.0 Safari/537.36" version="26.0.10">
  <diagram id="C5RBs43oDa-KdzZeNtuy" name="Page-1">
    <mxGraphModel dx="1434" dy="738" grid="1" gridSize="10" guides="1" tooltips="1" connect="1" arrows="1" fold="1" page="1" pageScale="1" pageWidth="827" pageHeight="1169" math="0" shadow="0">
      <root>
        <mxCell id="WIyWlLk6GJQsqaUBKTNV-0" />
        <mxCell id="WIyWlLk6GJQsqaUBKTNV-1" parent="WIyWlLk6GJQsqaUBKTNV-0" />
        <mxCell id="oDrARUDBT79SC8s8EYa_-2" value="" style="edgeStyle=orthogonalEdgeStyle;rounded=0;orthogonalLoop=1;jettySize=auto;html=1;" parent="WIyWlLk6GJQsqaUBKTNV-1" source="oDrARUDBT79SC8s8EYa_-3" edge="1">
          <mxGeometry relative="1" as="geometry">
            <mxPoint x="100" y="200" as="targetPoint" />
          </mxGeometry>
        </mxCell>
        <mxCell id="oDrARUDBT79SC8s8EYa_-0" value="Client inputs and submits the code" style="rounded=1;whiteSpace=wrap;html=1;" parent="WIyWlLk6GJQsqaUBKTNV-1" vertex="1">
          <mxGeometry x="40" y="90" width="120" height="40" as="geometry" />
        </mxCell>
        <mxCell id="oDrARUDBT79SC8s8EYa_-4" value="" style="edgeStyle=orthogonalEdgeStyle;rounded=0;orthogonalLoop=1;jettySize=auto;html=1;" parent="WIyWlLk6GJQsqaUBKTNV-1" source="oDrARUDBT79SC8s8EYa_-0" target="oDrARUDBT79SC8s8EYa_-3" edge="1">
          <mxGeometry relative="1" as="geometry">
            <mxPoint x="100" y="130" as="sourcePoint" />
            <mxPoint x="100" y="200" as="targetPoint" />
          </mxGeometry>
        </mxCell>
        <mxCell id="oDrARUDBT79SC8s8EYa_-6" value="" style="edgeStyle=orthogonalEdgeStyle;rounded=0;orthogonalLoop=1;jettySize=auto;html=1;" parent="WIyWlLk6GJQsqaUBKTNV-1" source="oDrARUDBT79SC8s8EYa_-3" target="oDrARUDBT79SC8s8EYa_-5" edge="1">
          <mxGeometry relative="1" as="geometry" />
        </mxCell>
        <mxCell id="oDrARUDBT79SC8s8EYa_-8" value="No" style="edgeLabel;html=1;align=center;verticalAlign=middle;resizable=0;points=[];" parent="oDrARUDBT79SC8s8EYa_-6" vertex="1" connectable="0">
          <mxGeometry x="0.0333" y="-4" relative="1" as="geometry">
            <mxPoint y="-14" as="offset" />
          </mxGeometry>
        </mxCell>
        <mxCell id="oDrARUDBT79SC8s8EYa_-10" value="" style="edgeStyle=orthogonalEdgeStyle;rounded=0;orthogonalLoop=1;jettySize=auto;html=1;" parent="WIyWlLk6GJQsqaUBKTNV-1" source="oDrARUDBT79SC8s8EYa_-3" target="oDrARUDBT79SC8s8EYa_-9" edge="1">
          <mxGeometry relative="1" as="geometry" />
        </mxCell>
        <mxCell id="oDrARUDBT79SC8s8EYa_-3" value="Correct code extension?" style="rhombus;whiteSpace=wrap;html=1;" parent="WIyWlLk6GJQsqaUBKTNV-1" vertex="1">
          <mxGeometry x="60" y="180" width="80" height="80" as="geometry" />
        </mxCell>
        <mxCell id="oDrARUDBT79SC8s8EYa_-5" value="Raise an error" style="rounded=1;whiteSpace=wrap;html=1;" parent="WIyWlLk6GJQsqaUBKTNV-1" vertex="1">
          <mxGeometry x="200" y="190" width="120" height="60" as="geometry" />
        </mxCell>
        <mxCell id="oDrARUDBT79SC8s8EYa_-12" value="" style="edgeStyle=orthogonalEdgeStyle;rounded=0;orthogonalLoop=1;jettySize=auto;html=1;" parent="WIyWlLk6GJQsqaUBKTNV-1" source="oDrARUDBT79SC8s8EYa_-9" target="oDrARUDBT79SC8s8EYa_-11" edge="1">
          <mxGeometry relative="1" as="geometry" />
        </mxCell>
        <mxCell id="oDrARUDBT79SC8s8EYa_-9" value="Send to the server" style="rounded=1;whiteSpace=wrap;html=1;" parent="WIyWlLk6GJQsqaUBKTNV-1" vertex="1">
          <mxGeometry x="40" y="300" width="120" height="40" as="geometry" />
        </mxCell>
        <mxCell id="oDrARUDBT79SC8s8EYa_-14" value="" style="edgeStyle=orthogonalEdgeStyle;rounded=0;orthogonalLoop=1;jettySize=auto;html=1;entryX=0.5;entryY=0;entryDx=0;entryDy=0;" parent="WIyWlLk6GJQsqaUBKTNV-1" source="oDrARUDBT79SC8s8EYa_-11" target="oDrARUDBT79SC8s8EYa_-38" edge="1">
          <mxGeometry relative="1" as="geometry">
            <mxPoint x="100" y="480" as="targetPoint" />
          </mxGeometry>
        </mxCell>
        <mxCell id="oDrARUDBT79SC8s8EYa_-11" value="Server runs the code on testing input inside Docker container - Piston API" style="whiteSpace=wrap;html=1;rounded=1;" parent="WIyWlLk6GJQsqaUBKTNV-1" vertex="1">
          <mxGeometry x="40" y="380" width="120" height="60" as="geometry" />
        </mxCell>
        <mxCell id="oDrARUDBT79SC8s8EYa_-38" value="Return the result of testing to the client" style="whiteSpace=wrap;html=1;rounded=1;" parent="WIyWlLk6GJQsqaUBKTNV-1" vertex="1">
          <mxGeometry x="40" y="480" width="120" height="40" as="geometry" />
        </mxCell>
        <mxCell id="Gydm1qwDTPoBg8wv6aID-0" value="Yes" style="text;html=1;align=center;verticalAlign=middle;resizable=0;points=[];autosize=1;strokeColor=none;fillColor=none;" parent="WIyWlLk6GJQsqaUBKTNV-1" vertex="1">
          <mxGeometry x="50" y="260" width="40" height="30" as="geometry" />
        </mxCell>
        <mxCell id="TYe0Myk3NBzi4zqEtrTh-3" value="" style="edgeStyle=orthogonalEdgeStyle;rounded=0;orthogonalLoop=1;jettySize=auto;html=1;" edge="1" parent="WIyWlLk6GJQsqaUBKTNV-1" source="TYe0Myk3NBzi4zqEtrTh-1" target="TYe0Myk3NBzi4zqEtrTh-2">
          <mxGeometry relative="1" as="geometry" />
        </mxCell>
        <mxCell id="TYe0Myk3NBzi4zqEtrTh-1" value="tests = getInput(QID)" style="rounded=1;whiteSpace=wrap;html=1;" vertex="1" parent="WIyWlLk6GJQsqaUBKTNV-1">
          <mxGeometry x="590" y="90" width="120" height="40" as="geometry" />
        </mxCell>
        <mxCell id="TYe0Myk3NBzi4zqEtrTh-5" value="" style="edgeStyle=orthogonalEdgeStyle;rounded=0;orthogonalLoop=1;jettySize=auto;html=1;" edge="1" parent="WIyWlLk6GJQsqaUBKTNV-1" source="TYe0Myk3NBzi4zqEtrTh-2" target="TYe0Myk3NBzi4zqEtrTh-4">
          <mxGeometry relative="1" as="geometry" />
        </mxCell>
        <mxCell id="TYe0Myk3NBzi4zqEtrTh-2" value="for test in tests" style="rounded=1;whiteSpace=wrap;html=1;" vertex="1" parent="WIyWlLk6GJQsqaUBKTNV-1">
          <mxGeometry x="590" y="160" width="120" height="40" as="geometry" />
        </mxCell>
        <mxCell id="TYe0Myk3NBzi4zqEtrTh-9" style="edgeStyle=orthogonalEdgeStyle;rounded=0;orthogonalLoop=1;jettySize=auto;html=1;entryX=0.5;entryY=0;entryDx=0;entryDy=0;" edge="1" parent="WIyWlLk6GJQsqaUBKTNV-1" source="TYe0Myk3NBzi4zqEtrTh-4" target="TYe0Myk3NBzi4zqEtrTh-8">
          <mxGeometry relative="1" as="geometry" />
        </mxCell>
        <mxCell id="TYe0Myk3NBzi4zqEtrTh-4" value="Request to Piston API with code and test case" style="rounded=1;whiteSpace=wrap;html=1;" vertex="1" parent="WIyWlLk6GJQsqaUBKTNV-1">
          <mxGeometry x="590" y="230" width="120" height="50" as="geometry" />
        </mxCell>
        <mxCell id="TYe0Myk3NBzi4zqEtrTh-13" value="" style="edgeStyle=orthogonalEdgeStyle;rounded=0;orthogonalLoop=1;jettySize=auto;html=1;" edge="1" parent="WIyWlLk6GJQsqaUBKTNV-1" source="TYe0Myk3NBzi4zqEtrTh-8">
          <mxGeometry relative="1" as="geometry">
            <mxPoint x="650" y="450" as="targetPoint" />
          </mxGeometry>
        </mxCell>
        <mxCell id="TYe0Myk3NBzi4zqEtrTh-21" style="edgeStyle=orthogonalEdgeStyle;rounded=0;orthogonalLoop=1;jettySize=auto;html=1;" edge="1" parent="WIyWlLk6GJQsqaUBKTNV-1">
          <mxGeometry relative="1" as="geometry">
            <mxPoint x="530" y="570" as="targetPoint" />
            <mxPoint x="650" y="355" as="sourcePoint" />
            <Array as="points">
              <mxPoint x="531" y="355" />
            </Array>
          </mxGeometry>
        </mxCell>
        <mxCell id="TYe0Myk3NBzi4zqEtrTh-8" value="Output correct?" style="rhombus;whiteSpace=wrap;html=1;" vertex="1" parent="WIyWlLk6GJQsqaUBKTNV-1">
          <mxGeometry x="610" y="315" width="80" height="80" as="geometry" />
        </mxCell>
        <mxCell id="TYe0Myk3NBzi4zqEtrTh-14" value="Yes" style="text;html=1;align=center;verticalAlign=middle;resizable=0;points=[];autosize=1;strokeColor=none;fillColor=none;" vertex="1" parent="WIyWlLk6GJQsqaUBKTNV-1">
          <mxGeometry x="650" y="408" width="40" height="30" as="geometry" />
        </mxCell>
        <mxCell id="TYe0Myk3NBzi4zqEtrTh-16" style="edgeStyle=orthogonalEdgeStyle;rounded=0;orthogonalLoop=1;jettySize=auto;html=1;entryX=1;entryY=0.75;entryDx=0;entryDy=0;" edge="1" parent="WIyWlLk6GJQsqaUBKTNV-1" source="TYe0Myk3NBzi4zqEtrTh-15" target="TYe0Myk3NBzi4zqEtrTh-2">
          <mxGeometry relative="1" as="geometry">
            <Array as="points">
              <mxPoint x="740" y="490" />
              <mxPoint x="740" y="190" />
            </Array>
          </mxGeometry>
        </mxCell>
        <mxCell id="TYe0Myk3NBzi4zqEtrTh-19" value="" style="edgeStyle=orthogonalEdgeStyle;rounded=0;orthogonalLoop=1;jettySize=auto;html=1;" edge="1" parent="WIyWlLk6GJQsqaUBKTNV-1" source="TYe0Myk3NBzi4zqEtrTh-15" target="TYe0Myk3NBzi4zqEtrTh-18">
          <mxGeometry relative="1" as="geometry" />
        </mxCell>
        <mxCell id="TYe0Myk3NBzi4zqEtrTh-15" value="Last test?" style="rhombus;whiteSpace=wrap;html=1;" vertex="1" parent="WIyWlLk6GJQsqaUBKTNV-1">
          <mxGeometry x="610" y="450" width="80" height="80" as="geometry" />
        </mxCell>
        <mxCell id="TYe0Myk3NBzi4zqEtrTh-17" value="No" style="text;html=1;align=center;verticalAlign=middle;resizable=0;points=[];autosize=1;strokeColor=none;fillColor=none;" vertex="1" parent="WIyWlLk6GJQsqaUBKTNV-1">
          <mxGeometry x="690" y="458" width="40" height="30" as="geometry" />
        </mxCell>
        <mxCell id="TYe0Myk3NBzi4zqEtrTh-18" value="Send testing successful" style="whiteSpace=wrap;html=1;" vertex="1" parent="WIyWlLk6GJQsqaUBKTNV-1">
          <mxGeometry x="590" y="570" width="120" height="60" as="geometry" />
        </mxCell>
        <mxCell id="TYe0Myk3NBzi4zqEtrTh-20" value="Yes" style="text;html=1;align=center;verticalAlign=middle;resizable=0;points=[];autosize=1;strokeColor=none;fillColor=none;" vertex="1" parent="WIyWlLk6GJQsqaUBKTNV-1">
          <mxGeometry x="650" y="530" width="40" height="30" as="geometry" />
        </mxCell>
        <mxCell id="TYe0Myk3NBzi4zqEtrTh-22" value="No" style="text;html=1;align=center;verticalAlign=middle;resizable=0;points=[];autosize=1;strokeColor=none;fillColor=none;" vertex="1" parent="WIyWlLk6GJQsqaUBKTNV-1">
          <mxGeometry x="540" y="358" width="40" height="30" as="geometry" />
        </mxCell>
        <mxCell id="TYe0Myk3NBzi4zqEtrTh-23" value="Send error message" style="whiteSpace=wrap;html=1;" vertex="1" parent="WIyWlLk6GJQsqaUBKTNV-1">
          <mxGeometry x="460" y="570" width="120" height="60" as="geometry" />
        </mxCell>
      </root>
    </mxGraphModel>
  </diagram>
</mxfile>
